<svg width="93" height="47" viewBox="0 0 93 47" fill="none" xmlns="http://www.w3.org/2000/svg">
<path d="M37.898 16.5728V8.39701C37.898 6.70393 37.2115 5.17096 36.1018 4.06126C34.9921 2.95157 33.4592 2.26514 31.7661 2.26514C28.3799 2.26514 25.6342 5.01085 25.6342 8.39701V13.162C24.5407 12.8435 23.4004 12.6314 22.2276 12.5386C21.778 12.5028 21.324 12.4849 20.865 12.4849C20.406 12.4849 19.952 12.5028 19.5024 12.5386C18.3296 12.6314 17.1893 12.8435 16.0958 13.162V8.39701C16.0958 6.70393 15.4093 5.17096 14.2996 4.06126C13.1899 2.95157 11.657 2.26514 9.9639 2.26514C6.57775 2.26514 3.83203 5.01085 3.83203 8.39701V16.5728C3.83203 17.0898 3.85503 17.6016 3.90016 18.1066C4.05516 19.8406 4.46906 21.5005 5.10525 23.0454C4.46906 24.5903 4.05516 26.2501 3.90016 27.9841C3.85503 28.4891 3.83203 29.0009 3.83203 29.5179V37.6937C3.83203 41.0799 6.57775 43.8256 9.9639 43.8256C11.657 43.8256 13.1899 43.1392 14.2996 42.0295C15.4093 40.9198 16.0958 39.3868 16.0958 37.6937V32.9287C17.1893 33.2473 18.3296 33.4593 19.5024 33.5521C19.952 33.5879 20.406 33.6058 20.865 33.6058C21.324 33.6058 21.778 33.5879 22.2276 33.5521C23.4004 33.4593 24.5407 33.2473 25.6342 32.9287V37.6937C25.6342 41.0799 28.3799 43.8256 31.7661 43.8256C33.4592 43.8256 34.9921 43.1392 36.1018 42.0295C37.2115 40.9198 37.898 39.3868 37.898 37.6937V29.5179C37.898 29.0009 37.875 28.4891 37.8298 27.9841C37.6748 26.2501 37.2609 24.5903 36.6248 23.0454C37.2609 21.5005 37.6748 19.8406 37.8298 18.1066C37.875 17.6016 37.898 17.0898 37.898 16.5728ZM7.23863 8.39701C7.23863 6.89385 8.46074 5.67173 9.9639 5.67173C10.6921 5.67173 11.3759 5.95533 11.8912 6.46973C12.4056 6.98497 12.6892 7.66885 12.6892 8.39701V14.5723C10.6571 15.6854 8.87805 17.2013 7.4575 19.012C7.31357 18.2208 7.23863 17.4057 7.23863 16.5728V8.39701ZM15.876 23.0454C14.4172 24.1721 13.3484 25.78 12.9098 27.6298C12.7658 28.2362 12.6892 28.8681 12.6892 29.5179V37.6937C12.6892 38.4219 12.4056 39.1057 11.8912 39.621C11.3759 40.1354 10.6921 40.419 9.9639 40.419C8.46074 40.419 7.23863 39.1969 7.23863 37.6937V29.5179C7.23863 28.685 7.31357 27.8699 7.4575 27.0788C7.71725 25.6437 8.20354 24.2871 8.87635 23.0454C9.86085 21.2305 11.2448 19.6626 12.9098 18.4609C13.8849 17.7575 14.9554 17.1801 16.0992 16.7517C17.1757 16.348 18.3169 16.0772 19.5024 15.9596C19.9512 15.9145 20.4051 15.8915 20.865 15.8915C21.3249 15.8915 21.7788 15.9145 22.2276 15.9596C23.4131 16.0772 24.5543 16.348 25.6308 16.7517C25.5371 19.3032 23.4395 21.3421 20.865 21.3421C18.9888 21.3421 17.2574 21.9782 15.876 23.0454ZM34.4914 37.6937C34.4914 38.421 34.2078 39.1057 33.6934 39.621C33.1781 40.1354 32.4934 40.419 31.7661 40.419C30.2638 40.419 29.0408 39.1969 29.0408 37.6937V31.5184C31.0729 30.4053 32.852 28.8894 34.2725 27.0788C34.4164 27.8699 34.4914 28.685 34.4914 29.5179V37.6937ZM34.4914 16.5728C34.4914 17.4057 34.4164 18.2208 34.2725 19.012C34.0127 20.447 33.5265 21.8037 32.8537 23.0454C31.8691 24.8602 30.4852 26.4281 28.8202 27.6298C27.8451 28.3332 26.7746 28.9107 25.6308 29.339C24.5543 29.7427 23.4131 30.0135 22.2276 30.1311C21.7788 30.1762 21.3249 30.1992 20.865 30.1992C20.4051 30.1992 19.9512 30.1762 19.5024 30.1311C18.3169 30.0135 17.1757 29.7427 16.0992 29.339C16.1929 26.7875 18.2905 24.7487 20.865 24.7487C22.7412 24.7487 24.4726 24.1125 25.854 23.0454C27.3128 21.9186 28.3816 20.3107 28.8202 18.4609C28.9642 17.8546 29.0408 17.2226 29.0408 16.5728V8.39701C29.0408 6.89385 30.2638 5.67173 31.7661 5.67173C32.4934 5.67173 33.1781 5.95533 33.6934 6.46973C34.2078 6.98497 34.4914 7.6697 34.4914 8.39701V16.5728Z" fill="white"/>
<path d="M56.769 29.9372C56.769 30.9021 56.6318 31.8338 56.3576 32.7323C56.0834 33.6308 55.6644 34.4415 55.1023 35.1654C54.5393 35.8893 53.8163 36.4616 52.9314 36.8824C52.0474 37.3031 51.0186 37.5134 49.8459 37.5134C48.8997 37.5134 48.1554 37.4138 47.6112 37.2153L46.2153 36.7044C46.1038 36.6635 45.9862 36.7461 45.9862 36.8645V41.6976C45.9862 42.8737 45.0332 43.8267 43.8571 43.8267H43.008C41.8319 43.8267 40.8789 42.8737 40.8789 41.6976V24.9457C40.8789 23.7695 41.8319 22.8165 43.008 22.8165H44.8646C45.4838 22.8165 45.9862 23.319 45.9862 23.9381C45.9862 24.0105 46.0706 24.0489 46.1259 24.0029C46.5994 23.6103 47.1181 23.279 47.681 23.0082C48.3002 22.7101 49.1399 22.561 50.1993 22.561C51.2588 22.561 52.2799 22.8216 53.2917 23.3411C54.3034 23.8615 55.1364 24.6723 55.7887 25.7743C56.4411 26.8763 56.7673 28.2637 56.7673 29.938L56.769 29.9372ZM51.3925 30.0504C51.3925 29.18 51.2554 28.4732 50.9812 27.9298C50.7069 27.3865 50.3518 26.9939 49.9175 26.752C49.4823 26.511 49.0326 26.39 48.5693 26.39C47.9638 26.39 47.4673 26.4871 47.0798 26.6813C46.4104 27.0169 45.9871 27.7024 45.9871 28.451V32.2639C45.9871 32.6675 46.2017 33.0414 46.5517 33.2441L46.562 33.2501C46.7655 33.3685 46.9682 33.4698 47.1717 33.555C47.3753 33.6401 47.5925 33.7108 47.8241 33.7679C48.0557 33.8249 48.3036 33.853 48.5693 33.853C49.3732 33.853 50.0443 33.5124 50.5834 32.8319C51.1225 32.1514 51.3925 31.224 51.3925 30.0513V30.0504Z" fill="white"/>
<path d="M73.8793 29.7643C73.8793 30.7292 73.7422 31.6609 73.468 32.5594C73.1937 33.4579 72.7747 34.2687 72.2126 34.9926C71.6497 35.7165 70.9267 36.2888 70.0418 36.7095C69.1578 37.1302 68.129 37.3406 66.9563 37.3406C66.0101 37.3406 65.2657 37.2409 64.7215 37.0425L63.3257 36.5315C63.2141 36.4906 63.0966 36.5732 63.0966 36.6916V41.5247C63.0966 42.7008 62.1436 43.6538 60.9675 43.6538H60.1184C58.9423 43.6538 57.9893 42.7008 57.9893 41.5247V24.7728C57.9893 23.5967 58.9423 22.6437 60.1184 22.6437H61.975C62.5941 22.6437 63.0966 23.1461 63.0966 23.7653C63.0966 23.8377 63.1809 23.876 63.2363 23.83C63.7098 23.4374 64.2284 23.1061 64.7914 22.8353C65.4105 22.5372 66.2502 22.3882 67.3097 22.3882C68.3691 22.3882 69.3903 22.6488 70.402 23.1683C71.4138 23.6887 72.2467 24.4994 72.8991 25.6015C73.5514 26.7035 73.8776 28.0908 73.8776 29.7652L73.8793 29.7643ZM68.5029 29.8776C68.5029 29.0072 68.3657 28.3003 68.0915 27.757C67.8173 27.2136 67.4621 26.821 67.0278 26.5791C66.5926 26.3381 66.1429 26.2172 65.6796 26.2172C65.0741 26.2172 64.5776 26.3143 64.1901 26.5085C63.5207 26.844 63.0974 27.5296 63.0974 28.2782V32.091C63.0974 32.4947 63.3121 32.8686 63.6621 33.0713L63.6723 33.0772C63.8759 33.1956 64.0785 33.2969 64.2821 33.3821C64.4856 33.4673 64.7028 33.538 64.9344 33.595C65.1661 33.6521 65.4139 33.6802 65.6796 33.6802C66.4836 33.6802 67.1547 33.3395 67.6938 32.6591C68.2329 31.9786 68.5029 31.0511 68.5029 29.8784V29.8776Z" fill="white"/>
<path d="M89.5206 25.8456L81.6931 42.5975C81.3431 43.347 80.5911 43.8256 79.7641 43.8256H79.3085C77.7483 43.8256 76.7178 42.2032 77.3812 40.7912L79.6764 35.9053C79.8357 35.5663 79.8382 35.1737 79.6824 34.833L75.5817 25.8269C74.9395 24.4174 75.97 22.8154 77.5192 22.8154H78.2712C79.1356 22.8154 79.9149 23.3383 80.2419 24.138L81.8984 28.1876C82.1794 28.8758 83.146 28.8979 83.4594 28.2242L85.3995 24.0478C85.7487 23.2966 86.5015 22.8154 87.3302 22.8154H87.5916C89.1502 22.8154 90.1798 24.4344 89.5206 25.8456Z" fill="white"/>
</svg>
