<svg width="101" height="50" viewBox="0 0 101 50" fill="none" xmlns="http://www.w3.org/2000/svg">
<path d="M40.976 17.9188V9.07905C40.976 7.24848 40.2338 5.59102 39.034 4.39121C37.8342 3.19139 36.1767 2.44922 34.3461 2.44922C30.685 2.44922 27.7163 5.41791 27.7163 9.07905V14.231C26.534 13.8866 25.301 13.6573 24.0331 13.557C23.5469 13.5183 23.0561 13.4989 22.5598 13.4989C22.0634 13.4989 21.5727 13.5183 21.0865 13.557C19.8185 13.6573 18.5855 13.8866 17.4032 14.231V9.07905C17.4032 7.24848 16.6611 5.59102 15.4612 4.39121C14.2614 3.19139 12.604 2.44922 10.7734 2.44922C7.11225 2.44922 4.14355 5.41791 4.14355 9.07905V17.9188C4.14355 18.4778 4.16842 19.0312 4.21722 19.5772C4.38481 21.452 4.83232 23.2466 5.52017 24.917C4.83232 26.5873 4.38481 28.382 4.21722 30.2568C4.16842 30.8028 4.14355 31.3562 4.14355 31.9152V40.7549C4.14355 44.4161 7.11225 47.3848 10.7734 47.3848C12.604 47.3848 14.2614 46.6426 15.4612 45.4428C16.6611 44.243 17.4032 42.5855 17.4032 40.7549V35.603C18.5855 35.9474 19.8185 36.1767 21.0865 36.277C21.5727 36.3157 22.0634 36.335 22.5598 36.335C23.0561 36.335 23.5469 36.3157 24.0331 36.277C25.301 36.1767 26.534 35.9474 27.7163 35.603V40.7549C27.7163 44.4161 30.685 47.3848 34.3461 47.3848C36.1767 47.3848 37.8342 46.6426 39.034 45.4428C40.2338 44.243 40.976 42.5855 40.976 40.7549V31.9152C40.976 31.3562 40.9511 30.8028 40.9023 30.2568C40.7347 28.382 40.2872 26.5873 39.5994 24.917C40.2872 23.2466 40.7347 21.452 40.9023 19.5772C40.9511 19.0312 40.976 18.4778 40.976 17.9188ZM7.8268 9.07905C7.8268 7.45382 9.14816 6.13246 10.7734 6.13246C11.5607 6.13246 12.3001 6.43909 12.8572 6.99526C13.4134 7.55235 13.72 8.29176 13.72 9.07905V15.7558C11.5229 16.9593 9.59936 18.5984 8.06344 20.556C7.90783 19.7006 7.8268 18.8194 7.8268 17.9188V9.07905ZM17.1657 24.917C15.5883 26.1352 14.4327 27.8737 13.9585 29.8737C13.8029 30.5293 13.72 31.2126 13.72 31.9152V40.7549C13.72 41.5422 13.4134 42.2816 12.8572 42.8387C12.3001 43.3949 11.5607 43.7015 10.7734 43.7015C9.14816 43.7015 7.8268 42.3802 7.8268 40.7549V31.9152C7.8268 31.0146 7.90783 30.1334 8.06344 29.2779C8.34429 27.7264 8.87007 26.2595 9.59752 24.917C10.662 22.9547 12.1583 21.2595 13.9585 19.9603C15.0128 19.1997 16.1703 18.5754 17.4069 18.1122C18.5708 17.6757 19.8047 17.3829 21.0865 17.2558C21.5717 17.207 22.0625 17.1822 22.5598 17.1822C23.057 17.1822 23.5478 17.207 24.0331 17.2558C25.3148 17.3829 26.5487 17.6757 27.7126 18.1122C27.6113 20.871 25.3434 23.0754 22.5598 23.0754C20.5312 23.0754 18.6592 23.7632 17.1657 24.917ZM37.2927 40.7549C37.2927 41.5413 36.9861 42.2816 36.4299 42.8387C35.8728 43.3949 35.1325 43.7015 34.3461 43.7015C32.7218 43.7015 31.3995 42.3802 31.3995 40.7549V34.0781C33.5966 32.8746 35.5202 31.2356 37.0561 29.2779C37.2117 30.1334 37.2927 31.0146 37.2927 31.9152V40.7549ZM37.2927 17.9188C37.2927 18.8194 37.2117 19.7006 37.0561 20.556C36.7752 22.1076 36.2495 23.5745 35.522 24.917C34.4576 26.8792 32.9612 28.5744 31.1611 29.8737C30.1067 30.6343 28.9493 31.2586 27.7126 31.7218C26.5487 32.1582 25.3148 32.4511 24.0331 32.5781C23.5478 32.6269 23.057 32.6518 22.5598 32.6518C22.0625 32.6518 21.5717 32.6269 21.0865 32.5781C19.8047 32.4511 18.5708 32.1582 17.4069 31.7218C17.5082 28.963 19.7762 26.7586 22.5598 26.7586C24.5883 26.7586 26.4603 26.0708 27.9539 24.917C29.5312 23.6988 30.6868 21.9603 31.1611 19.9603C31.3167 19.3047 31.3995 18.6214 31.3995 17.9188V9.07905C31.3995 7.45382 32.7218 6.13246 34.3461 6.13246C35.1325 6.13246 35.8728 6.43909 36.4299 6.99526C36.9861 7.55235 37.2927 8.29268 37.2927 9.07905V17.9188Z" fill="url(#paint0_linear_1397_5449)"/>
<path d="M61.3797 32.3687C61.3797 33.412 61.2315 34.4193 60.9349 35.3908C60.6384 36.3622 60.1854 37.2389 59.5777 38.0215C58.969 38.8042 58.1873 39.423 57.2305 39.8779C56.2747 40.3328 55.1624 40.5602 53.8944 40.5602C52.8714 40.5602 52.0666 40.4525 51.4782 40.2379L49.969 39.6855C49.8484 39.6413 49.7213 39.7306 49.7213 39.8586V45.0842C49.7213 46.3558 48.6909 47.3862 47.4193 47.3862H46.5012C45.2296 47.3862 44.1992 46.3558 44.1992 45.0842V26.9718C44.1992 25.7002 45.2296 24.6698 46.5012 24.6698H48.5086C49.178 24.6698 49.7213 25.2131 49.7213 25.8825C49.7213 25.9608 49.8125 26.0022 49.8723 25.9525C50.3843 25.528 50.9451 25.1698 51.5537 24.877C52.2232 24.5547 53.1311 24.3936 54.2766 24.3936C55.4221 24.3936 56.5261 24.6753 57.62 25.237C58.714 25.7996 59.6145 26.6762 60.3198 27.8678C61.0252 29.0593 61.3779 30.5593 61.3779 32.3696L61.3797 32.3687ZM55.5666 32.4912C55.5666 31.5501 55.4184 30.7858 55.1219 30.1983C54.8254 29.6109 54.4414 29.1864 53.9718 28.9249C53.5012 28.6643 53.0151 28.5335 52.5141 28.5335C51.8594 28.5335 51.3226 28.6385 50.9036 28.8484C50.1799 29.2112 49.7222 29.9525 49.7222 30.7619V34.8843C49.7222 35.3208 49.9543 35.725 50.3327 35.9442L50.3438 35.9506C50.5639 36.0786 50.783 36.1882 51.0031 36.2803C51.2232 36.3724 51.458 36.4488 51.7084 36.5105C51.9589 36.5722 52.2268 36.6026 52.5141 36.6026C53.3834 36.6026 54.109 36.2343 54.6919 35.4985C55.2747 34.7628 55.5666 33.76 55.5666 32.4921V32.4912Z" fill="url(#paint1_linear_1397_5449)"/>
<path d="M79.8787 32.1812C79.8787 33.2245 79.7305 34.2318 79.434 35.2033C79.1375 36.1747 78.6844 37.0514 78.0767 37.834C77.468 38.6167 76.6863 39.2355 75.7296 39.6904C74.7738 40.1453 73.6614 40.3727 72.3935 40.3727C71.3704 40.3727 70.5656 40.265 69.9772 40.0504L68.468 39.498C68.3474 39.4538 68.2203 39.5431 68.2203 39.6711V44.8967C68.2203 46.1683 67.19 47.1987 65.9183 47.1987H65.0003C63.7286 47.1987 62.6982 46.1683 62.6982 44.8967V26.7843C62.6982 25.5127 63.7286 24.4823 65.0003 24.4823H67.0076C67.6771 24.4823 68.2203 25.0256 68.2203 25.695C68.2203 25.7733 68.3115 25.8147 68.3714 25.765C68.8833 25.3405 69.4441 24.9823 70.0528 24.6895C70.7222 24.3672 71.6301 24.2061 72.7756 24.2061C73.9211 24.2061 75.0251 24.4878 76.1191 25.0495C77.213 25.6121 78.1135 26.4887 78.8189 27.6803C79.5242 28.8718 79.8769 30.3718 79.8769 32.1821L79.8787 32.1812ZM74.0656 32.3037C74.0656 31.3626 73.9174 30.5983 73.6209 30.0108C73.3244 29.4234 72.9404 28.9989 72.4708 28.7374C72.0003 28.4768 71.5141 28.346 71.0132 28.346C70.3585 28.346 69.8216 28.451 69.4027 28.6609C68.6789 29.0237 68.2213 29.765 68.2213 30.5744V34.6968C68.2213 35.1333 68.4533 35.5375 68.8318 35.7567L68.8428 35.7631C69.0629 35.8911 69.282 36.0007 69.5021 36.0928C69.7222 36.1849 69.957 36.2613 70.2075 36.323C70.4579 36.3847 70.7259 36.4151 71.0132 36.4151C71.8824 36.4151 72.608 36.0468 73.1909 35.311C73.7738 34.5753 74.0656 33.5725 74.0656 32.3046V32.3037Z" fill="url(#paint2_linear_1397_5449)"/>
<path d="M96.7914 27.9452L88.3282 46.0575C87.9498 46.8678 87.1367 47.3853 86.2426 47.3853H85.75C84.063 47.3853 82.9489 45.6312 83.6662 44.1045L86.1477 38.8218C86.3199 38.4553 86.3227 38.0308 86.1542 37.6625L81.7205 27.9249C81.0262 26.401 82.1404 24.6689 83.8153 24.6689H84.6284C85.563 24.6689 86.4056 25.2343 86.7592 26.099L88.5501 30.4774C88.854 31.2214 89.8991 31.2454 90.238 30.517L92.3356 26.0014C92.7131 25.1892 93.5271 24.6689 94.4231 24.6689H94.7058C96.3908 24.6689 97.5041 26.4194 96.7914 27.9452Z" fill="url(#paint3_linear_1397_5449)"/>
<defs>
<linearGradient id="paint0_linear_1397_5449" x1="4.14355" y1="24.917" x2="40.976" y2="24.917" gradientUnits="userSpaceOnUse">
<stop stop-color="#00CF92"/>
<stop offset="0.51" stop-color="#00B2CB"/>
<stop offset="1" stop-color="#0098FF"/>
</linearGradient>
<linearGradient id="paint1_linear_1397_5449" x1="43.8392" y1="46.2048" x2="56.3677" y2="24.504" gradientUnits="userSpaceOnUse">
<stop stop-color="#70C5FF"/>
<stop offset="1" stop-color="#0098FF"/>
</linearGradient>
<linearGradient id="paint2_linear_1397_5449" x1="62.3382" y1="46.0173" x2="74.8667" y2="24.3165" gradientUnits="userSpaceOnUse">
<stop stop-color="#70C5FF"/>
<stop offset="1" stop-color="#0098FF"/>
</linearGradient>
<linearGradient id="paint3_linear_1397_5449" x1="80.1349" y1="44.5032" x2="92.5216" y2="23.0492" gradientUnits="userSpaceOnUse">
<stop stop-color="#70C5FF"/>
<stop offset="1" stop-color="#0098FF"/>
</linearGradient>
</defs>
</svg>
