<svg width="27" height="27" viewBox="0 0 27 27" fill="none" xmlns="http://www.w3.org/2000/svg">
<path d="M25.9612 13.501C25.9599 15.9897 25.2135 18.4211 23.818 20.4819C22.4226 22.5427 20.442 24.1384 18.1316 25.0634C15.8211 25.9885 13.2866 26.2006 10.8545 25.6723C8.42245 25.144 6.20428 23.8996 4.48578 22.0994C3.079 20.6258 2.05499 18.8296 1.50344 16.8684C0.951881 14.9071 0.889601 12.8405 1.32205 10.8496C1.7545 8.85872 2.66849 7.0042 3.98397 5.44849C5.29945 3.89278 6.9763 2.68332 8.86767 1.92604C10.759 1.16876 12.8072 0.88676 14.8329 1.10473C16.8585 1.3227 18.7998 2.034 20.4868 3.17633C22.1737 4.31866 23.5549 5.85718 24.5093 7.65714C25.4637 9.45711 25.9622 11.4636 25.9612 13.501V13.501Z" stroke="white" stroke-width="2" stroke-miterlimit="10"/>
<path d="M13.4997 12.6165C15.7135 12.6165 17.5081 10.8219 17.5081 8.60807C17.5081 6.39426 15.7135 4.59961 13.4997 4.59961C11.2859 4.59961 9.49121 6.39426 9.49121 8.60807C9.49121 10.8219 11.2859 12.6165 13.4997 12.6165Z" fill="white" stroke="white" stroke-miterlimit="10"/>
<path d="M22.514 22.099C21.3504 23.3179 19.9516 24.2882 18.4023 24.9511C16.853 25.614 15.1854 25.9558 13.5002 25.9558C11.815 25.9558 10.1473 25.614 8.59801 24.9511C7.0487 24.2882 5.64994 23.3179 4.48633 22.099C5.14701 20.2366 6.36834 18.6246 7.98242 17.4846C9.5965 16.3445 11.5241 15.7324 13.5002 15.7324C15.4763 15.7324 17.4039 16.3445 19.0179 17.4846C20.632 18.6246 21.8533 20.2366 22.514 22.099Z" fill="white" stroke="white" stroke-miterlimit="10"/>
</svg>
