<svg width="26" height="26" viewBox="0 0 26 26" fill="none" xmlns="http://www.w3.org/2000/svg">
<path d="M25 13C25 16.21 23.74 19.1286 21.6829 21.28C19.5014 23.5729 16.4157 25 13 25C9.58429 25 6.50286 23.5729 4.31714 21.28C2.26 19.1286 1 16.21 1 13C1 6.37429 6.37429 1 13 1C19.6257 1 25 6.37429 25 13Z" stroke="white" stroke-width="2" stroke-miterlimit="10"/>
<path d="M13 12.0352C15.2091 12.0352 17 10.2443 17 8.03516C17 5.82602 15.2091 4.03516 13 4.03516C10.7909 4.03516 9 5.82602 9 8.03516C9 10.2443 10.7909 12.0352 13 12.0352Z" stroke="white" stroke-width="2" stroke-miterlimit="10"/>
<path d="M21 21.2261C18.8645 23.5522 15.8438 25 12.5 25C9.15622 25 6.13968 23.5522 4 21.2261C5.23766 17.6 8.57725 15 12.5 15C16.4228 15 19.7665 17.6 21 21.2261Z" stroke="white" stroke-width="2" stroke-miterlimit="10"/>
</svg>
