<svg width="29" height="26" viewBox="0 0 29 26" fill="none" xmlns="http://www.w3.org/2000/svg">
<g clip-path="url(#clip0_1144_4835)">
<path d="M17.6499 19.6093V24.9993H10.7999V19.6093C10.7748 19.1439 10.8447 18.6783 11.0055 18.2409C11.1662 17.8035 11.4144 17.4034 11.735 17.0651C12.0555 16.7268 12.4416 16.4574 12.8697 16.2732C13.2978 16.0891 13.7589 15.9941 14.2249 15.9941C14.6909 15.9941 15.1521 16.0891 15.5802 16.2732C16.0083 16.4574 16.3944 16.7268 16.7149 17.0651C17.0354 17.4034 17.2836 17.8035 17.4444 18.2409C17.6051 18.6783 17.6751 19.1439 17.6499 19.6093V19.6093Z" stroke="white" stroke-width="2" stroke-linecap="round" stroke-linejoin="round"/>
<path d="M27.45 12.76H23.78V25H17.65V19.61C17.6752 19.1447 17.6052 18.6791 17.4445 18.2416C17.2837 17.8042 17.0355 17.4042 16.715 17.0659C16.3945 16.7275 16.0084 16.4581 15.5803 16.274C15.1522 16.0898 14.691 15.9949 14.225 15.9949C13.759 15.9949 13.2978 16.0898 12.8697 16.274C12.4416 16.4581 12.0555 16.7275 11.735 17.0659C11.4145 17.4042 11.1663 17.8042 11.0055 18.2416C10.8448 18.6791 10.7748 19.1447 10.8 19.61V25H4.67V12.76H1L14.22 1L27.45 12.76Z" stroke="white" stroke-width="2" stroke-linecap="round" stroke-linejoin="round"/>
<path d="M17.6499 19.6093V24.9993H10.7999V19.6093C10.7748 19.1439 10.8447 18.6783 11.0055 18.2409C11.1662 17.8035 11.4144 17.4034 11.735 17.0651C12.0555 16.7268 12.4416 16.4574 12.8697 16.2732C13.2978 16.0891 13.7589 15.9941 14.2249 15.9941C14.6909 15.9941 15.1521 16.0891 15.5802 16.2732C16.0083 16.4574 16.3944 16.7268 16.7149 17.0651C17.0354 17.4034 17.2836 17.8035 17.4444 18.2409C17.6051 18.6783 17.6751 19.1439 17.6499 19.6093V19.6093Z" stroke="white" stroke-width="2" stroke-linecap="round" stroke-linejoin="round"/>
</g>
<defs>
<clipPath id="clip0_1144_4835">
<rect width="28.45" height="26" fill="white"/>
</clipPath>
</defs>
</svg>
