<svg width="20" height="20" viewBox="0 0 20 20" fill="none" xmlns="http://www.w3.org/2000/svg">
<path d="M18.9535 11.8005V8.62535H16.3027C16.1402 7.93542 15.8657 7.28884 15.5045 6.69644L17.3789 4.82171L15.1326 2.57492L13.2618 4.44965C12.6695 4.09204 12.0231 3.81752 11.3333 3.65497V1H8.15877V3.65135C7.46897 3.8139 6.82252 4.08843 6.23023 4.44604L4.35587 2.57131L2.10952 4.81809L3.98389 6.69283C3.62635 7.28523 3.35188 7.93181 3.18936 8.62174H0.534912V11.7969H3.18575C3.34826 12.4868 3.62274 13.1334 3.98027 13.7258L2.10591 15.5969L4.35226 17.8437L6.22662 15.9726C6.81891 16.3302 7.46536 16.6047 8.15516 16.7673V19.4186H11.3297V16.7673C12.0195 16.6047 12.6659 16.3302 13.2582 15.9726L15.1289 17.8437L17.3753 15.5969L15.5009 13.7258C15.8621 13.1334 16.1366 12.4868 16.2991 11.7969H18.9499L18.9535 11.8005ZM9.74421 14.0834C7.60621 14.0834 5.86908 12.3531 5.86908 10.2111C5.86908 8.06907 7.6026 6.33522 9.74421 6.33522C11.8858 6.33522 13.6157 8.06907 13.6157 10.2111C13.6157 12.3531 11.8822 14.0834 9.74421 14.0834Z" stroke="white" stroke-linecap="round" stroke-linejoin="round"/>
</svg>
