<svg width="31" height="27" viewBox="0 0 31 27" fill="none" xmlns="http://www.w3.org/2000/svg">
<g clip-path="url(#clip0_1144_4854)">
<path d="M21.0394 5.77445V17.3533C21.0394 17.7719 20.8731 18.1734 20.5771 18.4694C20.2811 18.7655 19.8796 18.9318 19.4609 18.9318H2.61709C2.19846 18.9318 1.79697 18.7655 1.50095 18.4694C1.20493 18.1734 1.03863 17.7719 1.03863 17.3533V5.77445C1.03308 5.56369 1.06981 5.35396 1.14665 5.15763C1.22349 4.9613 1.33888 4.78236 1.48601 4.63136C1.63314 4.48035 1.80903 4.36036 2.00329 4.27845C2.19756 4.19654 2.40627 4.15437 2.61709 4.15445H4.69402L6.30363 1.03906L7.88209 4.15445H19.4609C19.6718 4.15437 19.8805 4.19654 20.0747 4.27845C20.269 4.36036 20.4449 4.48035 20.592 4.63136C20.7392 4.78236 20.8545 4.9613 20.9314 5.15763C21.0082 5.35396 21.0449 5.56369 21.0394 5.77445V5.77445Z" stroke="white" stroke-width="2" stroke-linecap="round" stroke-linejoin="round"/>
<path d="M4.72461 8.40039H17.3523" stroke="white" stroke-width="2" stroke-linecap="round" stroke-linejoin="round"/>
<path d="M4.72461 11.5586H17.3523" stroke="white" stroke-width="2" stroke-linecap="round" stroke-linejoin="round"/>
<path d="M4.72461 14.7246H17.3523" stroke="white" stroke-width="2" stroke-linecap="round" stroke-linejoin="round"/>
<path d="M23.2821 8.06836H27.8617C28.2803 8.06836 28.6818 8.23466 28.9778 8.53068C29.2738 8.8267 29.4402 9.22819 29.4402 9.64682V21.2257C29.4457 21.4364 29.409 21.6462 29.3321 21.8425C29.2553 22.0388 29.1399 22.2178 28.9928 22.3688C28.8456 22.5198 28.6698 22.6398 28.4755 22.7217C28.2812 22.8036 28.0725 22.8457 27.8617 22.8457H25.7848L24.2063 25.9611L22.6278 22.8457H11.0282C10.8174 22.8457 10.6087 22.8036 10.4144 22.7217C10.2202 22.6398 10.0443 22.5198 9.89714 22.3688C9.75001 22.2178 9.63462 22.0388 9.55778 21.8425C9.48095 21.6462 9.44422 21.4364 9.44977 21.2257" stroke="white" stroke-width="2" stroke-linecap="round" stroke-linejoin="round"/>
</g>
<defs>
<clipPath id="clip0_1144_4854">
<rect width="30.4788" height="27" fill="white"/>
</clipPath>
</defs>
</svg>
